<svg xmlns="http://www.w3.org/2000/svg" xmlns:xlink="http://www.w3.org/1999/xlink" preserveAspectRatio="xMidYMid" width="714" height="166" viewBox="0 0 714 166">
  <defs>
    <style>

      .cls-2 {
        fill: #ffffff;
      }
    </style>
  </defs>
  <path d="M714.000,112.999 C712.622,113.013 712.984,114.078 713.021,114.790 C713.243,119.102 711.068,122.643 709.178,126.194 C708.372,127.707 707.426,129.038 706.920,130.776 C705.899,134.283 703.538,136.886 700.124,138.344 C698.710,138.948 697.176,139.264 695.723,139.788 C692.535,140.937 689.356,142.112 686.190,143.320 C683.862,144.208 681.778,144.279 679.353,143.072 C671.397,139.106 666.610,134.683 660.816,127.525 C656.800,122.562 653.908,117.039 651.177,111.468 C648.749,106.518 647.207,101.113 645.877,95.659 C644.446,89.786 643.705,83.951 644.035,77.965 C644.147,75.926 644.804,73.919 644.962,71.877 C645.130,69.724 644.545,67.425 645.091,65.407 C646.391,60.592 646.254,55.403 648.667,50.913 C649.447,49.463 648.069,47.475 650.000,46.461 C650.443,40.132 654.837,35.473 657.060,29.890 C658.398,26.532 661.214,24.133 663.822,21.705 C667.046,18.701 670.120,15.447 673.711,12.950 C677.659,10.203 681.761,7.291 687.132,7.972 C690.370,8.383 693.388,6.387 696.721,6.939 C697.894,7.133 698.921,7.195 699.725,8.195 C700.349,8.968 701.020,9.789 701.848,10.299 C704.786,12.109 705.540,15.302 705.844,18.114 C706.330,22.610 707.523,27.051 707.071,31.686 C706.717,35.316 706.965,39.010 707.021,42.675 C707.038,43.798 707.725,45.083 707.361,45.997 C706.856,47.263 707.466,49.065 705.701,49.818 C704.143,50.483 702.701,51.605 701.090,51.913 C699.161,52.281 697.025,52.339 695.139,51.877 C693.941,51.583 692.636,50.283 692.086,49.105 C691.044,46.876 689.931,44.610 689.973,41.976 C690.062,36.313 689.932,30.645 690.049,24.983 C690.077,23.600 689.556,22.618 688.544,22.138 C687.511,21.647 686.491,22.079 685.470,22.932 C683.421,24.642 680.975,25.880 678.949,27.613 C674.373,31.527 671.716,36.684 669.998,42.377 C668.389,47.708 666.688,53.012 665.175,58.368 C664.532,60.643 665.566,63.235 664.000,65.384 C664.615,69.001 662.930,72.395 662.988,75.967 C663.044,79.464 662.638,83.011 663.093,86.450 C663.646,90.637 664.097,94.903 665.471,98.936 C667.121,103.778 669.276,108.422 672.200,112.630 C673.545,114.568 673.876,117.155 676.044,118.549 C677.241,119.318 677.861,120.630 679.476,121.156 C681.159,121.704 682.137,125.019 684.202,123.855 C686.969,122.295 690.253,120.776 691.009,116.999 C691.284,115.626 691.923,114.276 691.931,112.912 C691.940,111.400 692.897,110.121 692.903,108.828 C692.921,104.755 694.572,100.876 694.076,96.738 C693.920,95.435 694.872,94.036 694.954,92.660 C695.092,90.328 695.407,89.755 692.875,90.026 C691.684,90.153 690.110,91.171 689.443,90.713 C688.320,89.945 687.251,89.843 686.213,90.050 C683.626,90.564 680.716,90.768 678.632,92.147 C676.191,93.763 674.626,91.950 673.128,91.356 C671.399,90.672 669.632,88.893 669.870,86.370 C668.009,85.371 669.989,84.456 670.135,83.671 C670.556,81.416 670.762,78.737 673.102,77.469 C675.558,76.137 677.937,74.593 681.077,74.934 C684.586,75.317 687.919,73.913 691.334,73.292 C694.739,72.674 698.050,71.717 701.421,71.084 C705.905,70.241 708.653,72.254 711.091,76.489 C712.609,79.124 713.027,81.786 713.063,84.704 C713.077,85.786 712.064,87.388 714.000,87.999 C714.000,96.332 714.000,104.666 714.000,112.999 ZM636.942,107.878 C637.243,109.314 637.542,111.182 636.888,112.298 C635.503,114.660 634.593,117.475 632.010,119.010 C631.332,119.412 630.680,119.888 630.099,120.420 C628.686,121.715 627.432,122.892 625.304,123.407 C623.154,123.927 621.008,125.527 619.475,127.213 C618.119,128.706 616.474,128.995 614.889,129.555 C609.547,131.444 607.101,131.250 602.374,128.870 C593.682,124.494 586.869,118.159 582.821,109.239 C580.720,104.608 579.501,99.614 577.902,94.779 C576.404,90.252 576.643,85.439 575.000,80.996 C575.732,74.250 572.996,67.570 574.150,60.945 C575.096,55.511 575.420,50.003 576.691,44.575 C577.935,39.257 579.134,33.875 581.140,28.891 C584.986,19.335 590.630,10.990 600.719,6.768 C602.849,5.877 604.620,4.414 607.046,3.892 C611.435,2.948 614.936,2.668 619.318,3.787 C620.847,4.177 622.546,4.021 624.000,4.563 C629.233,6.512 631.997,10.526 634.128,15.650 C637.499,23.752 636.966,32.085 636.978,40.447 C636.981,42.142 636.041,42.876 634.175,42.999 C632.115,43.135 630.148,43.096 628.040,43.853 C624.875,44.990 621.888,43.126 619.113,41.560 C618.616,41.280 618.013,40.529 618.059,40.053 C618.289,37.647 617.744,35.288 618.518,32.782 C619.314,30.207 618.989,27.255 618.965,24.470 C618.949,22.593 619.537,20.646 617.618,19.006 C615.433,17.137 613.040,16.833 610.429,17.030 C609.851,17.073 609.251,17.428 608.752,17.773 C607.446,18.671 606.310,19.916 604.892,20.532 C600.878,22.276 600.056,25.859 598.930,29.521 C597.653,33.675 596.615,37.885 595.436,42.061 C595.310,42.505 594.989,42.952 595.024,43.376 C595.444,48.458 593.464,53.337 593.902,58.466 C594.127,61.112 593.198,63.837 593.037,66.541 C592.870,69.363 593.095,72.206 592.979,75.034 C592.773,80.053 593.976,84.697 595.742,89.388 C597.314,93.564 598.537,97.857 600.359,101.974 C601.871,105.394 604.843,106.461 607.772,106.859 C611.861,107.415 616.083,107.045 620.246,106.979 C622.208,106.948 622.944,106.061 622.989,103.876 C623.037,101.545 623.000,99.212 623.000,96.468 C622.630,93.523 623.716,90.064 622.059,86.769 C621.518,85.694 622.105,83.683 621.394,83.156 C620.533,82.519 618.838,82.935 617.511,83.014 C614.963,83.165 612.441,82.679 609.876,83.888 C607.967,84.786 606.528,83.400 604.960,80.992 C603.468,78.701 604.067,76.263 604.058,73.884 C604.053,72.625 606.522,70.954 608.076,71.023 C611.325,71.172 614.266,70.188 617.366,69.357 C621.509,68.248 625.983,68.308 630.326,68.041 C632.033,67.937 635.163,71.330 636.038,73.438 C636.865,75.429 637.097,77.430 637.009,79.538 C636.807,84.377 637.544,89.031 638.839,93.745 C639.690,96.844 638.950,100.366 639.020,103.696 C639.058,105.480 636.508,105.804 636.942,107.878 ZM567.044,93.596 C566.729,93.821 567.063,94.874 566.990,95.531 C566.225,102.414 565.115,109.202 563.094,115.877 C561.864,119.941 559.893,123.620 557.877,127.190 C554.990,132.305 551.879,137.372 547.267,141.322 C544.229,143.925 541.150,146.049 537.272,147.405 C532.936,148.923 529.478,147.292 526.111,145.453 C523.612,144.087 521.414,141.982 519.450,139.864 C515.455,135.558 511.880,130.963 508.827,125.843 C506.733,122.331 505.303,118.617 503.556,115.008 C502.890,113.633 502.416,112.114 502.151,110.607 C501.653,107.787 501.381,104.927 500.997,102.087 C500.678,99.726 500.197,97.379 500.037,95.007 C499.870,92.523 500.545,89.864 499.896,87.549 C498.071,81.036 499.390,74.476 499.069,67.956 C498.963,65.785 499.682,63.576 499.995,61.381 C500.286,59.347 499.946,57.374 500.813,55.228 C501.711,53.007 501.486,50.219 501.790,47.703 C502.248,43.900 504.226,40.450 504.000,36.572 C506.039,35.382 504.388,32.969 505.857,31.283 C506.922,30.061 506.534,27.652 507.038,25.840 C507.530,24.070 508.359,22.396 508.995,20.663 C510.679,16.070 512.371,11.652 516.161,8.066 C518.417,5.930 520.761,3.810 522.955,1.571 C523.551,0.963 524.314,0.519 525.000,-0.001 C527.333,-0.001 529.667,-0.001 532.000,-0.001 C535.338,2.657 538.983,4.944 541.771,8.261 C547.163,14.673 552.285,21.290 555.945,28.863 C557.416,31.907 558.601,35.128 559.049,38.574 C559.244,40.074 559.966,41.509 560.469,42.966 C562.836,49.828 564.418,56.926 566.899,63.767 C567.853,66.401 567.287,69.561 568.104,72.275 C568.970,75.155 569.007,77.987 568.986,80.879 C568.969,83.175 569.531,85.853 568.547,87.659 C567.468,89.636 569.197,92.054 567.044,93.596 ZM543.963,72.421 C543.803,70.049 543.274,67.704 543.014,65.335 C542.627,61.814 542.867,58.109 541.795,54.823 C541.176,52.925 541.478,51.029 540.767,49.269 C539.165,45.304 538.668,41.091 538.019,36.918 C537.725,35.027 534.918,26.069 534.000,24.584 C532.824,22.683 530.194,22.271 528.624,23.946 C527.568,25.074 526.355,26.437 526.096,27.856 C525.337,32.015 522.535,35.647 523.000,40.089 C520.633,46.320 520.102,52.977 519.211,59.452 C518.489,64.709 517.303,70.064 517.962,75.506 C518.200,77.476 518.000,79.500 518.000,81.498 C518.000,85.497 518.051,89.495 517.986,93.493 C517.919,97.520 519.076,101.341 520.074,105.139 C521.324,109.900 522.593,114.727 525.045,119.055 C526.224,121.134 527.692,123.562 530.612,122.926 C533.611,122.273 536.558,121.150 539.091,119.332 C540.074,118.626 540.759,117.647 541.155,116.198 C541.671,114.310 542.316,112.457 541.935,110.586 C541.506,108.481 542.974,106.933 543.032,104.990 C543.281,96.630 542.267,88.236 543.926,79.901 C544.405,77.497 544.130,74.909 543.963,72.421 ZM493.469,30.008 C491.437,30.303 489.425,30.803 487.386,30.962 C485.235,31.129 483.060,31.000 480.896,31.000 C479.397,31.000 477.897,30.945 476.402,31.015 C474.958,31.082 472.646,30.814 472.270,31.521 C471.578,32.821 471.388,35.151 472.142,36.286 C473.429,38.225 472.852,40.089 472.958,41.963 C473.118,44.783 472.871,47.627 473.038,50.448 C473.189,52.985 473.658,55.503 474.002,58.027 C474.324,60.388 474.680,62.744 474.994,65.105 C475.171,66.429 476.184,65.973 476.896,65.983 C482.448,66.059 487.083,68.171 490.751,72.300 C491.669,73.334 492.580,74.571 492.938,75.868 C493.910,79.382 491.070,82.816 487.109,82.971 C483.618,83.107 480.117,83.058 476.623,82.969 C475.283,82.935 474.991,83.408 474.969,84.666 C474.874,90.155 475.472,95.503 476.879,100.851 C477.575,103.499 477.179,106.495 476.949,109.306 C476.727,112.011 477.560,114.698 476.231,117.492 C475.391,119.258 476.017,121.726 476.003,123.880 C475.990,125.877 476.117,127.884 475.956,129.869 C475.858,131.082 475.686,132.595 474.933,133.390 C472.829,135.610 471.046,138.237 468.038,139.494 C466.335,140.206 464.740,141.175 463.080,141.994 C461.369,142.840 459.629,143.931 457.802,142.288 C455.788,140.477 454.100,138.073 455.205,135.551 C455.932,133.892 455.960,132.429 455.967,130.881 C456.026,118.229 455.982,105.576 456.020,92.924 C456.026,91.134 455.952,89.416 455.000,87.844 C456.619,85.846 455.889,83.481 455.964,81.265 C456.007,80.028 456.424,78.698 455.192,77.563 C454.763,77.168 454.727,75.835 455.053,75.215 C456.777,71.947 456.044,68.459 455.906,65.117 C455.748,61.258 457.199,57.235 455.029,53.528 C456.967,51.214 455.790,48.488 455.955,45.960 C456.185,42.444 455.772,39.077 454.396,35.643 C453.522,33.463 454.356,30.579 454.503,28.015 C454.566,26.914 455.131,25.773 454.950,24.740 C453.919,18.841 456.475,16.420 462.573,15.066 C464.477,14.642 466.554,15.000 468.552,15.000 C470.883,15.000 473.223,15.128 475.541,14.961 C477.581,14.813 479.585,14.194 481.625,14.027 C486.593,13.620 490.693,16.305 494.723,18.491 C496.668,19.546 497.738,22.417 497.972,24.992 C498.142,26.855 495.406,29.728 493.469,30.008 ZM386.963,33.999 C386.869,36.370 386.353,38.725 385.994,41.082 C385.660,43.277 386.360,45.435 385.172,47.754 C384.253,49.548 384.978,52.061 384.110,54.292 C383.269,56.454 383.629,59.065 382.913,61.303 C382.255,63.361 381.976,65.499 381.151,67.560 C380.175,69.997 380.377,72.894 379.984,75.579 C379.735,77.286 379.251,78.960 379.023,80.668 C378.794,82.390 379.422,84.200 378.063,85.802 C377.653,86.288 377.862,87.443 378.024,88.243 C378.666,91.396 376.944,94.259 377.000,97.330 C375.006,99.154 376.206,101.826 375.198,104.086 C374.017,106.736 374.481,110.078 373.963,113.073 C373.293,116.946 372.042,120.714 371.826,124.673 C369.805,126.731 372.176,129.896 370.000,131.914 C370.774,135.546 368.781,138.888 368.923,142.497 C369.008,144.676 368.342,146.884 367.998,149.077 C367.654,151.270 368.827,153.655 367.047,155.701 C366.717,156.080 366.918,157.005 367.014,157.658 C367.504,160.986 366.333,163.283 363.079,164.486 C362.598,164.663 362.354,165.479 362.000,165.999 C360.333,165.999 358.667,165.999 357.000,165.999 C356.647,165.479 356.412,164.710 355.922,164.478 C350.800,162.042 349.847,157.143 349.105,152.390 C348.638,149.403 347.496,146.471 347.946,143.317 C348.113,142.141 348.457,141.277 349.107,140.267 C350.345,138.342 351.676,136.450 352.132,134.011 C352.357,132.812 352.331,131.939 352.105,130.795 C351.921,129.870 352.886,128.775 352.956,127.729 C353.129,125.171 353.641,122.616 353.812,120.137 C354.187,114.679 356.231,109.485 356.000,103.986 C358.295,101.472 355.654,97.831 357.960,95.282 C358.104,95.124 357.777,94.373 357.503,94.031 C355.886,92.022 354.251,90.028 352.565,88.076 C348.480,83.345 344.681,78.383 340.765,73.526 C335.773,67.339 331.766,60.547 327.651,53.878 C323.798,47.632 319.538,41.406 317.925,33.937 C317.449,31.730 316.245,29.620 315.079,27.640 C313.292,24.606 313.060,21.139 312.066,17.893 C311.390,15.682 312.888,13.171 315.053,12.010 C316.410,11.284 317.969,10.857 319.182,9.953 C320.880,8.687 322.175,9.849 322.934,10.734 C326.546,14.949 330.453,23.509 333.104,29.983 C335.260,35.252 338.144,40.256 341.051,45.174 C344.156,50.425 347.969,55.271 350.895,60.611 C352.897,64.265 355.647,67.082 358.460,69.958 C358.926,70.434 359.450,70.863 359.862,71.381 C360.493,72.177 361.345,73.821 361.591,73.729 C363.019,73.198 363.001,71.818 363.038,70.426 C363.118,67.425 364.308,64.580 364.694,61.666 C365.173,58.046 366.188,54.599 367.038,51.100 C367.880,47.633 368.399,44.072 369.755,40.738 C369.871,40.452 370.014,40.130 369.986,39.840 C369.668,36.578 369.887,33.270 371.266,30.374 C372.634,27.500 372.131,24.173 373.933,21.461 C374.260,20.970 374.024,19.736 373.601,19.189 C372.437,17.676 373.199,16.659 373.937,15.302 C374.888,13.553 376.207,11.964 376.600,9.913 C377.215,6.707 380.162,6.200 382.494,5.064 C383.379,4.632 385.709,6.655 385.989,7.928 C386.059,8.247 386.025,8.595 385.996,8.926 C385.280,17.326 387.298,25.621 386.963,33.999 ZM312.000,93.665 C311.558,97.872 312.935,102.189 311.205,106.329 C310.968,106.896 310.993,107.603 311.011,108.242 C311.165,113.716 309.771,118.843 308.156,124.039 C307.322,126.725 305.929,129.008 304.356,130.929 C300.591,135.527 296.104,139.024 289.726,140.145 C281.317,141.623 274.430,141.605 267.873,136.876 C261.068,131.967 255.503,125.718 253.990,116.892 C253.726,115.353 253.504,113.771 252.965,112.320 C251.813,109.221 251.215,106.202 252.981,103.129 C253.125,102.880 253.144,102.341 252.978,102.162 C251.189,100.239 252.683,98.414 252.906,96.462 C253.362,92.466 255.651,90.146 258.971,88.551 C263.039,86.596 268.836,86.530 271.932,87.942 C273.318,88.574 274.158,89.273 273.986,90.781 C273.563,94.466 274.181,98.113 273.244,101.921 C272.361,105.508 272.709,109.568 273.885,113.476 C275.307,118.202 278.995,120.005 282.756,121.972 C283.148,122.177 283.883,122.201 284.217,121.966 C286.039,120.684 287.984,119.483 289.492,117.881 C290.646,116.657 291.071,114.915 291.073,113.043 C291.074,111.182 291.708,109.328 291.988,107.459 C292.244,105.747 291.999,104.104 292.821,102.297 C293.638,100.503 293.000,98.047 293.000,95.432 C293.786,89.822 291.405,84.251 289.836,78.680 C288.321,73.304 283.871,69.786 279.075,67.006 C273.222,63.614 267.672,59.824 263.204,54.676 C259.501,50.412 257.076,45.554 257.007,39.762 C256.967,36.431 256.890,33.094 257.022,29.769 C257.340,21.765 259.909,14.627 265.662,8.882 C267.599,6.948 269.549,5.068 271.857,3.441 C275.970,0.542 280.318,0.591 284.747,1.358 C287.272,1.795 289.842,2.611 292.129,3.992 C294.389,5.358 296.734,6.588 298.954,8.014 C305.315,12.098 308.396,18.087 309.024,25.513 C309.197,27.555 309.793,29.560 309.964,31.602 C310.130,33.586 310.031,35.596 309.992,37.595 C309.941,40.224 308.686,41.500 305.947,42.015 C303.772,42.424 301.674,43.070 299.406,43.173 C296.881,43.287 295.451,42.794 293.971,40.837 C291.984,38.210 290.537,35.346 291.066,32.074 C291.778,27.666 290.214,22.585 287.044,19.535 C284.704,17.283 282.160,17.240 279.878,19.653 C277.109,22.581 274.957,25.821 274.951,30.117 C274.949,31.145 274.103,32.160 274.041,33.204 C273.795,37.314 274.786,41.130 277.709,44.139 C279.379,45.858 281.367,47.281 283.277,48.753 C285.059,50.126 285.977,52.547 288.502,53.031 C288.773,53.083 288.975,53.480 289.214,53.713 C291.542,55.977 293.899,58.171 296.493,60.177 C298.876,62.021 300.589,64.735 302.577,67.083 C304.243,69.051 306.139,70.887 307.457,73.069 C308.892,75.445 310.345,78.088 309.925,80.986 C309.576,83.394 311.001,85.313 311.054,87.582 C311.102,89.619 310.195,91.880 312.000,93.665 ZM239.542,119.884 C238.678,120.765 237.522,121.374 236.449,122.027 C235.796,122.425 235.070,122.901 234.352,122.947 C233.268,123.017 232.996,123.407 232.946,124.434 C232.919,124.977 232.315,125.482 232.003,126.023 C230.542,128.561 228.470,130.062 225.430,130.006 C223.597,129.972 221.764,130.000 218.958,130.000 C215.905,130.132 212.107,129.693 208.188,128.194 C204.979,126.965 202.235,125.344 199.768,123.203 C193.500,117.765 190.161,110.464 187.380,102.863 C187.167,102.281 187.096,101.640 187.005,101.020 C186.659,98.661 186.450,96.274 185.965,93.943 C185.525,91.827 184.588,89.805 184.234,87.680 C183.608,83.929 183.740,80.385 186.942,77.455 C189.334,75.266 191.589,73.082 194.939,72.565 C195.288,72.511 195.780,72.357 195.979,72.523 C198.775,74.846 200.872,77.580 201.010,81.425 C201.039,82.218 201.003,83.103 201.331,83.785 C203.902,89.111 203.487,95.411 206.919,100.476 C208.758,103.190 209.616,106.634 212.294,108.704 C214.884,110.706 218.202,111.527 221.287,110.840 C223.409,110.368 224.763,107.870 224.913,105.622 C225.128,102.402 226.607,99.369 226.074,96.033 C225.922,95.082 227.121,93.890 226.924,92.976 C225.869,88.068 226.451,82.791 223.952,78.233 C222.745,76.030 221.099,74.052 219.534,72.066 C217.938,70.041 215.850,68.512 214.478,66.176 C213.493,64.501 211.469,63.298 209.688,62.262 C206.471,60.388 203.580,58.155 201.005,55.495 C199.402,53.838 197.462,52.658 195.965,50.726 C193.833,47.973 192.690,45.068 191.999,41.818 C191.673,40.288 191.140,38.774 191.036,37.231 C190.719,32.544 192.251,28.218 194.014,23.985 C195.871,19.528 198.256,15.402 202.152,12.368 C203.012,11.698 203.917,10.973 204.922,10.624 C209.955,8.872 214.894,6.829 220.420,6.961 C227.185,7.122 227.190,6.997 232.035,11.538 C232.521,11.993 232.903,12.749 233.463,12.906 C237.427,14.020 238.275,17.763 239.916,20.695 C241.023,22.672 241.265,25.118 242.019,27.312 C242.760,29.461 242.881,31.655 243.091,33.894 C243.315,36.286 242.281,37.952 240.549,38.811 C238.214,39.968 235.925,41.453 232.953,41.097 C231.210,40.887 229.892,40.578 228.671,39.241 C227.101,37.522 225.904,36.048 225.840,33.335 C225.743,29.273 224.212,25.582 219.716,23.951 C216.852,22.912 213.458,23.142 211.459,25.038 C209.228,27.155 208.060,29.961 207.085,32.719 C206.071,35.583 208.623,39.749 211.175,42.068 C215.326,45.836 220.569,47.772 224.988,51.023 C227.700,53.019 230.567,54.956 232.785,57.437 C235.606,60.594 240.761,70.380 240.920,72.499 C241.077,74.586 241.652,76.586 241.860,78.589 C242.160,81.480 243.109,84.058 243.872,86.780 C244.839,90.231 245.838,93.714 246.195,97.394 C246.422,99.725 247.044,102.095 246.985,104.499 C246.872,109.097 245.024,113.000 242.068,116.460 C241.147,117.536 240.526,118.883 239.542,119.884 ZM177.190,85.176 C178.597,91.911 177.734,98.598 177.946,105.290 C178.143,111.518 176.857,117.637 174.861,123.482 C173.865,126.402 173.298,129.446 172.069,132.312 C171.017,134.767 170.272,137.325 168.267,139.229 C167.340,140.107 166.417,140.725 165.058,141.166 C163.054,141.815 161.369,143.532 159.630,144.899 C157.956,146.212 156.250,147.250 153.997,147.017 C153.008,146.914 151.981,146.874 151.003,147.020 C146.231,147.733 141.852,146.045 137.388,144.876 C136.495,144.643 135.619,144.010 134.757,144.049 C131.138,144.216 128.588,142.179 125.755,140.360 C119.034,136.045 115.320,129.200 110.749,123.103 C109.327,121.206 108.601,118.637 108.066,116.261 C107.201,112.420 106.515,108.526 105.844,104.639 C104.912,99.250 105.307,93.895 104.905,88.545 C104.760,86.612 103.627,85.015 104.839,82.784 C105.677,81.240 105.000,78.874 105.000,76.875 C105.000,74.710 104.466,72.362 105.128,70.423 C106.062,67.694 106.111,65.016 105.935,62.304 C105.835,60.781 104.924,59.420 104.926,57.717 C104.933,52.561 106.433,47.758 107.517,42.801 C109.170,35.243 113.060,28.751 115.941,21.777 C118.573,15.408 123.404,10.915 128.219,6.423 C129.970,4.788 132.476,3.937 134.690,2.832 C137.117,1.620 139.544,1.062 141.822,3.275 C142.230,3.672 143.329,4.081 143.442,3.943 C144.172,3.045 145.130,2.696 146.078,3.037 C148.536,3.925 151.066,4.753 153.319,6.042 C163.158,11.669 169.754,20.102 172.961,31.081 C173.658,33.469 174.459,35.777 175.494,38.032 C176.133,39.427 176.670,40.912 176.950,42.413 C177.190,43.701 176.870,45.086 177.038,46.396 C177.194,47.614 177.563,48.831 178.019,49.977 C179.456,53.586 178.869,57.351 179.273,61.091 C178.849,65.773 179.077,70.645 177.792,75.077 C176.779,78.567 176.540,82.063 177.190,85.176 ZM157.820,51.388 C155.720,46.798 155.434,41.735 154.226,36.940 C153.202,32.876 152.423,28.740 151.012,24.759 C150.226,22.541 148.300,20.073 146.670,19.145 C144.660,17.998 142.293,18.402 140.303,17.633 C138.953,17.111 138.072,16.841 136.829,17.624 C135.667,18.356 134.199,18.413 133.888,20.362 C133.687,21.625 132.305,22.659 131.635,23.895 C129.648,27.563 127.911,31.336 126.986,35.445 C126.230,38.808 125.435,42.160 124.739,45.532 C124.108,48.592 123.592,51.719 122.812,54.705 C121.959,57.970 122.114,61.120 122.030,64.324 C121.912,68.812 122.000,73.307 122.000,77.799 C122.000,79.962 122.000,82.125 122.000,84.287 C122.000,86.449 122.000,88.613 122.000,90.775 C122.000,93.105 121.871,95.444 122.039,97.760 C122.186,99.799 123.050,101.843 122.898,103.829 C122.728,106.045 123.989,107.873 123.953,109.911 C123.891,113.459 125.529,116.391 127.548,118.889 C130.184,122.151 133.982,123.476 138.265,122.999 C140.482,120.893 141.920,122.403 143.535,123.979 C145.387,125.784 146.702,125.464 147.988,123.029 C150.231,118.783 151.998,114.294 152.902,109.614 C153.586,106.070 155.389,102.731 155.000,98.982 C156.674,96.814 155.222,94.030 156.143,91.973 C157.309,89.373 156.699,86.866 157.006,84.339 C157.313,81.812 157.911,79.294 157.954,76.765 C158.082,69.281 158.005,61.792 157.994,54.306 C157.993,53.326 158.198,52.215 157.820,51.388 ZM96.579,153.968 C95.191,155.336 93.662,156.994 91.832,156.860 C89.599,156.696 87.206,155.871 85.316,154.656 C83.141,153.258 81.311,151.257 81.947,148.091 C82.188,146.891 81.447,145.601 81.225,144.469 C80.816,142.392 80.347,139.974 81.640,137.773 C82.084,137.016 82.074,135.867 81.956,134.938 C81.801,133.720 81.095,132.547 81.073,131.346 C81.053,130.323 82.078,129.222 81.922,128.275 C81.483,125.613 81.387,122.817 80.611,120.321 C79.907,118.059 79.883,115.716 79.176,113.451 C78.492,111.262 79.058,108.679 77.252,106.724 C77.066,106.523 77.008,106.136 77.011,105.836 C77.058,101.335 75.365,97.008 75.213,92.659 C75.042,87.755 73.725,82.987 73.991,78.082 C74.053,76.919 74.013,75.750 73.998,74.584 C73.946,70.698 74.360,66.791 73.045,62.984 C72.637,61.800 72.765,60.431 72.647,59.146 C72.058,60.304 71.451,61.453 70.883,62.621 C68.249,68.030 65.535,73.401 63.046,78.874 C62.094,80.967 61.666,83.366 60.838,85.459 C58.916,90.321 56.980,95.191 54.965,100.021 C53.225,104.193 52.270,108.578 50.929,112.855 C49.978,115.885 50.546,119.154 49.072,122.082 C48.718,122.786 49.154,123.968 49.406,124.881 C50.241,127.911 51.058,130.904 48.139,133.360 C47.708,137.235 43.873,138.172 41.839,140.664 C41.073,141.604 40.098,142.511 38.919,141.941 C37.510,141.260 36.102,140.420 35.957,138.430 C35.832,136.720 35.208,135.049 35.036,133.338 C34.870,131.689 34.969,130.009 35.005,128.342 C35.192,119.742 34.391,118.366 31.139,103.473 C30.305,99.653 29.473,95.799 28.411,92.062 C27.405,88.521 25.838,84.987 25.230,81.452 C24.637,78.016 23.159,74.881 22.704,71.397 C22.296,68.269 20.949,65.172 19.984,62.071 C19.879,61.734 19.560,61.461 19.340,61.159 C19.227,61.445 18.991,61.745 19.021,62.015 C19.174,63.411 17.990,64.603 18.893,66.247 C19.685,67.689 17.838,69.636 19.000,71.359 C18.428,77.602 20.562,83.845 19.802,89.918 C18.771,98.151 19.190,106.327 19.034,114.525 C18.879,122.688 19.025,130.855 18.991,139.021 C18.970,143.842 15.764,146.941 10.844,146.997 C9.512,147.012 8.175,147.057 6.846,146.985 C5.030,146.887 3.621,145.961 2.237,144.809 C1.031,143.805 0.989,142.642 0.950,141.297 C0.937,140.856 0.333,140.432 -0.000,139.999 C-0.000,131.999 -0.000,123.999 -0.000,115.999 C0.284,115.881 0.790,115.800 0.816,115.640 C0.946,114.840 1.047,114.013 0.985,113.208 C0.239,103.475 2.314,93.842 2.000,84.125 C3.963,76.670 2.113,69.000 3.159,61.566 C3.919,56.167 3.977,50.832 3.956,45.460 C3.944,42.142 3.008,38.925 2.256,35.693 C1.892,34.124 1.723,32.351 2.066,30.805 C3.009,26.563 3.817,22.279 5.305,18.162 C6.586,14.616 9.910,13.665 12.708,12.040 C12.962,11.893 13.634,12.221 13.970,12.500 C16.215,14.354 18.659,16.044 20.564,18.206 C22.063,19.909 23.364,22.093 23.891,24.272 C24.770,27.907 26.230,31.381 26.911,35.019 C27.576,38.572 28.992,41.916 29.662,45.361 C30.801,51.207 32.995,56.731 34.097,62.579 C35.069,67.738 36.954,72.719 38.287,77.816 C39.547,82.631 41.562,87.238 42.061,92.273 C42.221,93.885 43.105,95.426 43.658,96.999 C45.555,96.400 45.814,94.585 46.345,93.109 C48.856,86.120 52.318,79.579 55.501,72.898 C57.148,69.440 58.025,65.629 59.375,62.012 C61.261,56.962 63.720,52.135 65.049,46.854 C66.379,41.572 68.121,36.422 69.122,31.023 C69.937,26.636 70.644,22.287 71.119,17.844 C71.562,13.700 72.880,9.625 74.090,5.603 C74.369,4.674 75.228,3.376 77.120,4.474 C79.216,5.689 81.746,6.140 84.052,7.012 C86.376,7.892 87.704,10.052 87.875,12.116 C88.299,17.224 90.924,22.009 90.000,27.276 C91.956,33.551 90.913,40.001 90.913,46.359 C90.914,53.089 92.734,59.694 92.000,66.441 C93.684,70.014 92.716,73.826 93.029,77.523 C93.201,79.565 93.691,81.578 93.993,83.611 C94.295,85.645 93.325,87.847 94.952,89.736 C95.282,90.119 94.964,91.030 95.006,91.694 C95.329,96.890 95.158,102.189 96.198,107.238 C96.788,110.101 96.257,113.098 97.341,115.721 C98.488,118.491 97.281,121.340 98.098,123.916 C98.942,126.575 99.745,129.236 100.452,131.933 C100.527,132.217 100.960,132.437 100.978,132.704 C101.341,137.897 101.727,143.089 101.937,148.289 C101.969,149.096 101.311,150.494 100.708,150.660 C98.778,151.191 97.821,152.743 96.579,153.968 Z" id="path-1" class="cls-2" fill-rule="evenodd"/>
</svg>
